<?xml version="1.0" encoding="utf-8"?>
<!-- Generator: Adobe Illustrator 19.2.1, SVG Export Plug-In . SVG Version: 6.00 Build 0)  -->
<svg version="1.1" id="Laag_1" xmlns="http://www.w3.org/2000/svg" xmlns:xlink="http://www.w3.org/1999/xlink" x="0px" y="0px"
	 viewBox="0 0 106 65.8" style="enable-background:new 0 0 106 65.8;" xml:space="preserve">
<style type="text/css">
	.st0{fill:none;stroke:#000000;stroke-miterlimit:10;}
	.st1{fill:url(#SVGID_1_);}
	.st2{fill:#FFFFFF;}
</style>
<path class="st0" d="M1.4,112.2"/>
<path class="st0" d="M128.1-28.1"/>
<path class="st0" d="M128.1,121"/>
<path class="st0" d="M-39.6-29"/>
<path class="st0" d="M128.1,121"/>
<path class="st0" d="M128.1-28.1"/>
<g>
	
		<linearGradient id="SVGID_1_" gradientUnits="userSpaceOnUse" x1="22.6549" y1="33.5087" x2="23.0088" y2="33.5087" gradientTransform="matrix(-1 0 0 1 123.8938 0)">
		<stop  offset="0" style="stop-color:#FFFFFF"/>
		<stop  offset="1" style="stop-color:#000000"/>
	</linearGradient>
	<path class="st1" d="M102.5,3.4c-2.5,20-3,40.2-1.4,60.2c-5.8-7.3-12.6-13.9-19.3-20.4c-8.7-8.4-17.4-16.8-26.1-25.2
		C50.5,13,44.6,7.6,37.3,7.2c-4.1-0.2-8.1,1.1-12.1,2.2c-5.5,1.4-11.7,2.5-15.1,7c-1.6,2.1-2.4,4.6-3.2,7.1
		C4.6,31.2,2.2,39.1,3.1,47c0.2,2.1,0.7,4.2,1.9,6c1.1,1.6,2.7,2.7,4.4,3.6c9,4.7,19.9,2.7,29.7,0.1c9.6-2.5,19.4-5.5,27.5-11.3
		c5.2-3.8,9.6-8.6,13.8-13.4c7.4-8.6,14.6-17.4,20.3-27.3"/>
	<g>
		<path d="M100,3.4c-2.5,20-2.9,40.1-1.4,60.2c1.4-0.6,2.8-1.2,4.3-1.8C89.3,44.9,72.2,30.2,56.4,15.2C50.7,9.8,43.9,4.4,35.5,4.7
			c-4.5,0.2-8.8,1.7-13.1,2.8c-3.9,1-7.9,2-11.1,4.4C4.5,16.7,2.6,27.7,1.2,35.4c-1.3,7.2-2,16.9,4.6,21.8c7,5.3,16.6,5.2,24.9,3.9
			c9.2-1.5,18.6-4.1,27.2-7.9c9.9-4.4,17.3-11.4,24.4-19.5C89.8,25,97,15.9,102.9,5.9c1.6-2.8-2.7-5.3-4.3-2.5
			c-4.3,7.3-9.3,14.1-14.7,20.6c-5.3,6.4-10.7,13.2-17.4,18.3c-6.4,4.9-13.9,7.9-21.6,10.2c-7.5,2.2-15.5,4.5-23.4,4.3
			c-4.1-0.1-8.5-0.9-12-3.2c-4.5-3-4.4-9.2-3.9-14C6,35.3,7.3,31,8.5,26.8c1.4-4.7,2.5-9.3,7.1-11.8c2.9-1.6,6.4-2.3,9.6-3.1
			c4.3-1.1,8.7-2.7,13.3-2c8,1.2,14.2,8.6,19.7,14c14,13.5,29,26.4,41.3,41.5c1.3,1.7,4.4,0.3,4.3-1.8c-1.6-20.1-1.1-40.2,1.4-60.2
			C105.4,0.2,100.4,0.2,100,3.4L100,3.4z"/>
	</g>
</g>
<g>
	<g>
		<path class="st2" d="M23.6,24.6c0-0.2,0-0.4,0-0.6c-0.8,0.8-1.7,1.7-2.5,2.5c0.4,0,2.6-0.1,2.7-0.3c0-0.1-0.2-1.1-0.2-1.2
			c0,0,0.2-0.3,0.3-0.2c-0.1-0.1-1.2-0.1-1.3-0.2c0.3,0.3,0.6,0.6,0.9,0.9c0-0.1-0.1-0.2-0.1-0.3c0.1,0.4,0.2,0.8,0.3,1.3
			c0.1,1.3-0.4-0.4,0.1,0c-0.1-0.1-0.5-0.3-0.5-0.3c-0.1-0.3-0.2-0.6-0.4-0.8c1.1-1,1.3-1.4,0.5-1.2c0.3,0.1-0.6-0.1-0.7,0
			c0.3-0.3,0.9,1,0.9,1.1c0,0.3-0.1,0.5-0.3,0.7c-0.4,0.1-0.4,0.1,0,0.1c0,0,0.6,0.1,0.6,0.2c0,0-0.7-2-0.2-1.9
			c-0.1,0-1,0.2-1.1,0.3c-0.3,0.2,0.1,0.1,0,0.1c-0.4,1.3-0.4,1.9,0.1,1.6c0.1-0.1,0.2-0.1,0.3-0.1c0.4-0.1,0.4-0.1,0.2-0.1
			c0.3,0,0.4,0,0.2,0c0,0-0.8-2.2-0.7-2.1C22.2,24,22.2,24,22.4,24c-0.3,0-0.4,0-0.1,0c-0.4-0.1-0.3-0.1,0.2,0.2
			c0,0,0.1,0.1,0.1,0.1c0.3,0.5,0,0.7,0.2,0.8c0,0,0.8-0.3,0.9-0.3c0.1,0,0.1,0,0.2,0c-1-1.1-1.3-1.2-1-0.5c0-0.3,0.1,1,0.1,0.6
			c-0.1-0.7,0.7-0.1,0-0.2c0.1,0-0.6,0.1-0.5,0.1c-0.4,0-0.5,0-0.1,0.1c0.2,0.1,0.3,0.2,0.4,0.4c0.1,0.5-0.4,0.4,0.2,0.2
			c0.5-0.1,0-0.1,0.6-0.1c-0.2,0-0.1,0,0.2,0.1c-0.1,0-0.1,0-0.1-0.1c0,0-0.1-0.8-0.1-0.7c0-0.1,0.1-0.1,0.1-0.2
			c0,0-0.2-0.2-0.2-0.2c0.1,0.1-0.1-0.1,0-0.1c0,0-0.4,0.2,0.2,0.1c1.3-0.2,2.1-1.9,1.7-3.1c-0.4-1.4-1.7-2-3.1-1.7
			c-2.9,0.5-4.5,3.8-3.5,6.5c1,2.8,4.4,4.4,7.2,3.1c2.7-1.3,3.5-4.9,1.4-7.1c-1.9-1.9-5.2-2-7.3-0.4c-2.3,1.6-2.9,5.1-0.7,7.1
			c2,1.9,5.9,1.3,7.7-0.7c1.9-2,1.5-6.5-1.1-7.9c-2.5-1.3-6.2,0.4-7.4,2.7c-1.6,2.9,0.8,6,3.9,6.1c2.8,0,5.9-2.3,4.9-5.3
			c-0.9-3.1-4.8-3.1-7.1-1.7c-3.1,1.8-2.8,6.3,0.7,7.4c2.6,0.8,6.5-0.4,7.4-3.2c1-3.3-2.5-5.4-5.4-5.1c-1.5,0.1-2.8,0.8-3.6,2.1
			c-0.9,1.4-0.8,3.4,0.4,4.6c1.7,1.8,5.4,1.9,7.2,0.2c1.2-1.2,1.5-3.2,0.6-4.6c-0.8-1.3-2.4-2-3.9-1.9c-3.3,0.3-7.1,5.4-3.1,7.6
			c3,1.7,8,0.5,8.2-3.5c0.1-1.6-1-3-2.4-3.7c-1.6-0.7-3.3-0.4-5-0.2c-1.3,0.1-2.6,1-2.5,2.5c0,0.2,0,0.4,0,0.6
			c0.1,1.3,1.1,2.5,2.5,2.5C22.3,27.1,23.6,26,23.6,24.6L23.6,24.6z"/>
	</g>
</g>
<g>
	<g>
		<path d="M22.3,26.4c-0.4,0.1-0.9,0-1.2-0.2c0.3,0.2-0.2-0.2-0.3-0.3c-0.1-0.2-0.2-0.2-0.1-0.1c0.1,0.2,0.1,0.1-0.1-0.3
			c0-0.1,0-0.3-0.1-0.4c0.1-0.5,0.1-0.6,0-0.3c-0.4,1.2,0.5,2.8,1.7,3.1c1.4,0.3,2.6-0.4,3.1-1.7c0.9-2.6-1.8-5.1-4.4-4.4
			c-1.3,0.3-2.2,1.8-1.7,3.1C19.7,25.9,21,26.8,22.3,26.4L22.3,26.4z"/>
	</g>
</g>
</svg>
