<?xml version="1.0" encoding="utf-8"?>
<!-- Generator: Adobe Illustrator 21.1.0, SVG Export Plug-In . SVG Version: 6.00 Build 0)  -->
<svg version="1.1" id="Layer_1" xmlns="http://www.w3.org/2000/svg" xmlns:xlink="http://www.w3.org/1999/xlink" x="0px" y="0px"
	 viewBox="0 0 340.3 178.9" style="enable-background:new 0 0 340.3 178.9;" xml:space="preserve">
<style type="text/css">
	.st0{fill:#37e510;}
</style>
<polygon class="st0" points="6,105.2 16.3,82.9 33.7,55.6 61.7,27.6 90,11.9 118.7,5.6 139.3,5.6 160.3,13.2 187.3,27.6 212,48.2
	240,76.2 252.3,93.2 258.3,99.2 263.7,98.6 280.3,84.2 311.3,58.6 333.7,42.6 328.3,54.2 320.3,80.2 316.7,102.2 317,125.6 
	321,155.9 322.7,170.9 285.7,126.9 266.3,103.9 253.7,100.9 229.7,119.6 180,146.9 145,158.9 106.3,159.6 71,147.6 33.3,129.6 
	8.3,112.2 "/>
<g>
	<g>
		<path d="M125,0c-3.7,0-7.5,0.3-11.3,0.8c-13.3,1.9-25.6,6.3-37.2,13c-13.3,7.6-24.8,17.3-35.2,28.5c-11.9,12.8-21.9,27-30.5,42.1
			C6.9,91.1,3.3,97.9,0.2,105c-0.3,0.8-0.3,1.2,0.3,1.7c0.9,0.8,1.8,1.7,2.7,2.6c10.3,9.8,21.5,18.6,33.5,26.3
			c9.7,6.2,19.7,11.7,30.4,16c10.6,4.3,21.6,7,32.8,9.3c8.2,1.7,16.5,2.8,24.8,3.2c1.6,0.1,3.1,0.1,4.7,0.1
			c13.9,0,27.4-2.6,40.6-7.3c15.2-5.4,29.5-12.8,43.3-21c14.3-8.5,27.9-18.1,41.3-28.1c1.8-1.3,3.6-2.7,5.5-4.1
			c21.7,25.1,43.3,50.1,64.9,75.2c1.6-0.8,3.1-1.6,4.6-2.5c0-0.2-0.1-0.3-0.1-0.5c-1.2-5.2-2.5-10.5-3.6-15.7
			c-1.7-8-3-16.1-3.8-24.2c-0.6-6-1-11.9-1.3-17.9c-0.4-9.4,0.1-18.7,1.8-28c2-11,4.9-21.6,8.8-32.1c2.6-7.2,5.4-14.3,8.2-21.4
			c0.8-2.1,0.7-4.2,0.6-6.5c-2.3,0.6-4.2,1.3-6,3.1c-4.9,5.1-10,10.1-15.3,14.8c-16.9,15.2-34.4,29.7-52.3,43.7
			c-1.9,1.5-3.8,2.9-5.8,4.4c-0.3-0.3-0.4-0.6-0.6-0.8C248.9,79,236.1,64,222,50c-13.4-13.3-27.9-25.2-44.4-34.6
			C170,11.2,162,7.5,153.5,4.7C144.2,1.7,134.7,0,125,0L125,0z M128.5,155.2c-5.4,0-10.8-0.4-16.1-1.2c-9.8-1.4-19.6-3.3-29.1-6.2
			c-10.3-3.1-20.2-7.4-29.6-12.7c-13.5-7.5-26.3-16.1-38-26.3c-1.6-1.4-3.1-3-4.6-4.5c-0.5-0.5-0.5-0.9-0.2-1.5
			c7-14.2,15.2-27.6,24.9-40.1c8.7-11.2,18.4-21.5,29.5-30.5C76,23.6,87.8,16.7,101,12.7c7.8-2.4,15.7-3.7,23.7-3.7
			c3.8,0,7.6,0.3,11.5,0.8c11.2,1.7,21.7,5.5,31.7,10.7c13.2,6.9,25.3,15.4,36.3,25.4c12.8,11.6,24.6,24,35.5,37.3
			c4.1,5,8,10.1,12.2,15.4c-2.7,2.1-5.2,4-7.7,5.9c-11.7,8.4-23.6,16.7-36,24.1c-11.5,6.8-23.2,13-35.7,17.9
			c-10.3,4-20.8,6.9-31.8,8.1C136.7,155,132.6,155.2,128.5,155.2L128.5,155.2z M318.6,159.4c-17.2-19.2-34.4-38.6-50.5-58.8
			c19.4-16.3,38.6-32.5,58-48.9c-0.2,0.6-0.3,1-0.4,1.5c-2.2,7.8-4.6,15.5-6.6,23.3c-3.4,13.5-5,27.2-5,41.1
			c0,9.5,0.8,18.9,2.3,28.3c0.7,4.4,1.4,8.8,2.1,13.3C318.5,159.2,318.5,159.3,318.6,159.4L318.6,159.4z"/>
	</g>
	<path d="M68.8,44.4c-10.7,0-19.4,8.7-19.4,19.4s8.7,19.4,19.4,19.4s19.4-8.7,19.4-19.4S79.5,44.4,68.8,44.4z M80,63.7
		c0,6.2-5,11.2-11.2,11.2s-11.2-5-11.2-11.2s5-11.2,11.2-11.2S80,57.5,80,63.7z"/>
</g>
</svg>
