<?xml version="1.0" standalone="no"?>
<!DOCTYPE svg PUBLIC "-//W3C//DTD SVG 20010904//EN"
 "http://www.w3.org/TR/2001/REC-SVG-20010904/DTD/svg10.dtd">
<svg version="1.0" xmlns="http://www.w3.org/2000/svg"
 width="1128.000000pt" height="1128.000000pt" viewBox="0 0 1128.000000 1128.000000"
 preserveAspectRatio="xMidYMid meet">
<metadata>
Created by potrace 1.11, written by Peter Selinger 2001-2013
</metadata>
<g transform="translate(0.000000,1128.000000) scale(0.100000,-0.100000)"
fill="#000000" stroke="none">
<path d="M0 10165 l0 -200 2215 0 c1218 0 2215 -2 2215 -5 0 -4 -107 -37 -180
-55 -23 -6 -243 -84 -265 -95 -11 -5 -58 -25 -105 -43 -47 -19 -112 -48 -145
-63 -33 -15 -62 -28 -65 -29 -18 -2 -244 -123 -375 -200 -99 -59 -364 -234
-385 -255 -7 -7 -76 -60 -152 -117 -37 -28 -64 -53 -61 -57 3 -3 0 -6 -8 -6
-8 0 -22 -8 -30 -17 -9 -10 -49 -47 -90 -83 -147 -129 -392 -385 -487 -510
-15 -19 -30 -37 -34 -40 -27 -21 -301 -414 -352 -505 -9 -16 -21 -37 -26 -45
-33 -51 -193 -353 -196 -370 0 -3 -11 -27 -24 -55 -52 -115 -107 -254 -102
-259 3 -4 0 -6 -6 -6 -7 0 -12 -8 -12 -18 0 -10 -3 -22 -7 -26 -5 -4 -8 -11
-9 -14 0 -4 -19 -63 -41 -132 -62 -186 -149 -536 -168 -670 -2 -19 -7 -48 -10
-65 -4 -16 -8 -48 -10 -70 -2 -22 -4 -40 -5 -40 -1 0 -3 -11 -5 -25 -1 -14 -5
-50 -8 -80 -7 -60 -19 -212 -21 -275 -1 -22 -5 -46 -9 -52 -5 -7 -5 -13 0 -13
4 0 8 -91 9 -203 0 -190 8 -358 21 -437 3 -19 7 -53 9 -75 11 -108 15 -139 30
-210 7 -34 10 -54 18 -107 3 -21 19 -93 36 -160 17 -68 32 -132 34 -143 1 -11
8 -30 14 -41 6 -12 9 -24 6 -27 -3 -3 -2 -12 2 -19 9 -13 9 -15 18 -59 3 -15
19 -63 35 -108 16 -44 27 -81 24 -81 -3 0 0 -6 6 -14 7 -8 13 -22 16 -32 4
-21 92 -247 105 -273 5 -9 25 -52 45 -96 95 -206 194 -386 307 -557 32 -48 58
-92 58 -97 0 -5 4 -11 8 -13 4 -1 36 -42 69 -89 34 -48 68 -95 76 -105 9 -11
46 -57 84 -104 75 -94 119 -145 146 -169 9 -8 17 -18 17 -21 0 -8 210 -219
301 -305 55 -51 98 -88 224 -194 61 -51 255 -191 264 -191 6 0 11 -4 11 -8 0
-10 77 -62 91 -62 5 0 9 -4 9 -10 0 -5 4 -10 9 -10 5 0 37 -18 70 -40 33 -22
63 -40 67 -40 4 0 15 -6 23 -14 30 -26 325 -179 481 -249 153 -69 550 -213
550 -200 0 3 7 0 15 -7 8 -7 15 -9 15 -6 0 4 8 2 18 -3 9 -5 31 -12 47 -15 17
-3 57 -12 90 -21 136 -35 255 -60 325 -69 14 -2 36 -6 50 -10 14 -3 41 -8 60
-10 19 -3 35 -5 35 -6 0 -1 18 -3 40 -5 22 -2 56 -6 75 -9 37 -5 129 -14 250
-22 119 -9 434 -9 565 0 66 4 140 9 165 11 25 1 65 6 90 10 47 8 59 9 148 19
30 4 74 11 98 16 24 6 59 12 77 14 17 3 86 17 152 31 66 15 126 29 135 30 8 2
16 4 18 5 2 3 6 4 47 14 17 4 37 10 45 13 8 3 24 8 35 10 11 2 63 18 115 35
52 18 97 32 100 33 3 0 10 3 15 6 6 4 22 9 36 12 14 4 43 14 65 23 21 10 44
18 49 20 38 8 277 115 287 129 4 6 8 7 8 2 0 -4 60 24 133 61 179 93 201 106
205 115 2 4 8 7 13 7 31 0 391 246 574 393 98 79 120 98 239 207 70 64 274
270 297 299 8 11 31 37 50 58 55 61 111 130 203 253 47 63 90 120 96 127 5 7
10 16 10 22 0 5 4 11 8 13 10 4 72 96 72 108 0 4 4 10 8 12 12 5 157 247 169
281 3 9 10 17 16 17 6 0 7 3 4 6 -4 4 2 19 13 34 11 16 20 32 20 38 0 5 18 42
40 82 22 40 40 77 40 83 0 5 9 24 19 41 11 17 20 35 20 39 0 4 8 27 19 50 31
68 67 161 64 170 -1 4 2 7 6 7 5 0 9 6 10 13 0 6 24 80 52 162 61 181 68 202
74 237 2 15 7 31 10 36 3 5 7 19 10 33 6 30 11 52 25 109 25 100 34 143 46
225 2 17 7 41 10 55 8 35 18 100 18 128 1 12 3 22 7 22 3 0 5 17 6 38 0 20 4
64 7 97 12 106 18 197 22 320 2 66 5 122 5 125 1 3 1 23 0 45 -1 22 -3 55 -4
73 -1 17 3 32 9 32 7 0 7 3 0 8 -5 4 -10 32 -11 62 -1 61 -10 206 -19 290 -11
111 -14 135 -15 135 -1 0 -3 11 -5 25 -8 65 -16 120 -26 170 -6 30 -12 66 -15
80 -2 14 -9 45 -14 70 -6 25 -13 55 -15 68 -3 12 -7 32 -11 45 -3 12 -7 33
-10 47 -3 14 -8 34 -11 45 -4 11 -8 25 -9 30 -24 89 -48 171 -80 265 -21 63
-37 118 -36 123 1 4 -3 7 -9 7 -6 0 -9 7 -5 15 3 8 1 15 -4 15 -6 0 -9 3 -8 8
1 4 -6 24 -15 46 -9 21 -17 41 -17 43 0 24 -232 510 -249 523 -4 3 -15 21 -24
40 -31 63 -137 234 -149 238 -4 2 -6 8 -2 13 3 5 0 9 -5 9 -6 0 -11 4 -11 10
0 8 -174 257 -190 270 -7 6 -48 57 -80 99 -13 18 -33 43 -45 55 -11 12 -47 53
-80 91 -83 95 -285 297 -375 375 -41 36 -80 70 -86 76 -24 22 -189 154 -235
186 -13 10 -49 36 -79 58 -30 22 -60 44 -67 50 -7 5 -14 10 -17 10 -3 0 -33
19 -68 43 -152 104 -431 255 -648 351 -58 26 -114 51 -125 56 -44 20 -345 127
-380 135 -5 1 -17 5 -25 8 -8 4 -24 8 -35 11 -55 10 -85 19 -85 25 0 3 991 6
2203 6 1211 -1 2208 1 2215 3 9 3 12 52 12 201 l0 197 -5640 0 -5640 0 0 -201z
m5409 -4433 c0 -2186 -2 -3972 -5 -3969 -3 2 -25 62 -50 133 -25 70 -49 133
-54 139 -6 7 -7 14 -4 17 2 3 -2 21 -10 39 -8 19 -45 120 -82 224 -64 186
-105 300 -120 340 -4 11 -8 25 -9 30 -1 6 -7 21 -13 35 -6 14 -39 104 -73 200
-77 221 -157 446 -172 485 -6 17 -12 35 -13 40 -1 6 -6 21 -12 35 -5 14 -10
27 -10 30 -1 3 -13 37 -28 75 -14 39 -27 75 -29 80 -2 12 -14 42 -25 70 -5 11
-16 45 -26 75 -9 30 -21 61 -27 68 -5 6 -7 12 -4 12 3 0 -5 27 -18 60 -13 33
-21 60 -18 60 3 0 1 6 -4 13 -6 6 -20 44 -33 82 -12 39 -26 74 -31 80 -5 5 -9
16 -9 26 0 9 -9 38 -19 65 -33 83 -92 248 -97 273 -3 14 -8 29 -12 35 -4 6 -7
13 -8 16 0 3 -6 18 -12 33 -7 16 -12 31 -12 35 0 6 -54 159 -70 197 -10 22
-70 194 -74 210 -3 11 -14 40 -26 70 -4 11 -18 49 -30 85 -23 67 -117 334
-127 360 -4 8 -7 18 -8 23 -2 4 -3 8 -5 10 -1 1 -3 9 -5 17 -5 22 -54 162 -65
185 -5 11 -16 40 -24 65 -21 63 -69 199 -106 300 -18 47 -33 92 -35 100 -2 8
-4 16 -5 18 -2 1 -3 5 -4 10 -1 4 -4 12 -7 17 -3 6 -16 44 -30 85 -13 41 -28
78 -32 81 -5 3 -8 10 -8 15 1 5 -7 32 -16 59 -10 28 -18 52 -18 55 -1 3 -5 14
-9 25 -15 38 -19 50 -22 60 -3 14 -93 266 -101 285 -3 8 -7 18 -8 23 -2 4 -4
9 -5 12 -1 3 -3 8 -4 13 -1 4 -4 12 -7 17 -4 6 -9 22 -13 37 -3 15 -11 40 -18
55 -6 15 -12 33 -14 38 -5 19 -45 130 -54 150 -8 18 -19 53 -26 80 -3 10 -130
366 -141 395 -4 8 -7 17 -8 20 -1 3 -7 18 -13 33 -7 16 -12 32 -12 38 0 5 -12
38 -26 73 -14 36 -27 71 -28 78 -2 7 -6 20 -9 28 -3 8 -19 53 -36 100 -16 47
-48 137 -71 200 -22 63 -55 156 -72 205 -16 50 -34 98 -39 108 -11 19 9 44 76
92 22 16 42 31 45 34 11 13 160 121 225 164 39 26 75 50 80 55 28 21 147 92
156 92 5 0 9 5 9 10 0 6 9 10 20 10 11 0 20 4 20 9 0 13 351 184 495 242 151
60 416 149 443 149 10 0 22 3 26 7 3 4 12 8 19 9 7 2 72 17 146 34 74 17 146
33 160 35 26 3 39 6 135 24 26 5 61 8 77 7 16 -1 29 1 29 4 0 3 8 6 18 6 23 1
177 16 179 18 1 0 26 2 57 2 l55 1 0 -3975z m666 3963 c64 -6 110 -12 110 -15
0 -1 20 -3 45 -5 25 -2 61 -7 80 -11 19 -4 44 -8 55 -10 11 -2 31 -6 45 -8 14
-3 41 -8 60 -11 58 -10 281 -65 350 -87 121 -37 255 -81 285 -93 17 -7 62 -25
100 -40 39 -16 104 -43 145 -62 86 -40 111 -50 124 -51 5 0 12 -4 15 -9 3 -4
34 -21 68 -38 35 -16 63 -33 63 -37 0 -5 6 -8 14 -8 8 0 51 -22 96 -50 45 -27
83 -50 85 -50 5 0 154 -95 170 -108 6 -4 42 -30 80 -57 88 -61 135 -96 155
-115 8 -8 28 -24 43 -35 31 -23 32 -11 -9 -120 -4 -11 -8 -24 -10 -30 -12 -40
-46 -134 -53 -150 -5 -11 -22 -56 -36 -100 -15 -44 -33 -93 -40 -110 -12 -29
-36 -99 -41 -120 -2 -5 -12 -34 -22 -62 -11 -29 -17 -53 -14 -53 4 0 3 -4 -3
-8 -5 -4 -21 -41 -35 -82 -13 -41 -28 -80 -32 -86 -4 -6 -9 -19 -11 -30 -1
-10 -5 -23 -8 -29 -8 -13 -33 -89 -30 -93 1 -1 -5 -15 -14 -32 -8 -16 -17 -37
-18 -47 -2 -10 -7 -25 -10 -33 -25 -61 -90 -247 -90 -257 0 -7 -5 -13 -10 -13
-6 0 -8 -3 -4 -6 3 -3 1 -18 -5 -33 -12 -30 -128 -351 -132 -366 -2 -5 -6 -17
-9 -25 -3 -8 -20 -55 -37 -105 -17 -49 -34 -99 -39 -110 -5 -11 -19 -49 -31
-85 -11 -36 -24 -72 -27 -80 -3 -8 -7 -17 -7 -20 -2 -8 -57 -162 -66 -185 -28
-71 -73 -202 -73 -212 0 -7 -3 -13 -7 -13 -4 0 -7 -6 -7 -12 -1 -7 -20 -65
-43 -128 -23 -63 -44 -124 -47 -135 -3 -11 -10 -25 -15 -32 -5 -7 -7 -17 -3
-23 3 -5 1 -10 -6 -10 -7 0 -10 -2 -7 -6 3 -3 -16 -64 -44 -137 -27 -73 -50
-139 -52 -147 -2 -8 -6 -22 -9 -30 -15 -34 -79 -216 -82 -232 -2 -9 -9 -26
-15 -37 -6 -12 -7 -21 -3 -21 4 0 3 -4 -3 -8 -6 -4 -19 -34 -29 -67 -9 -33
-23 -73 -30 -90 -12 -25 -69 -185 -79 -220 -2 -5 -6 -17 -9 -25 -3 -8 -31 -87
-62 -175 -31 -88 -59 -167 -62 -175 -3 -8 -7 -19 -9 -25 -1 -5 -12 -35 -23
-65 -69 -191 -93 -256 -95 -265 -2 -5 -6 -17 -9 -25 -3 -8 -20 -55 -37 -105
-86 -246 -131 -371 -137 -385 -3 -8 -7 -19 -8 -25 -2 -5 -14 -40 -28 -77 -15
-38 -24 -68 -20 -68 3 0 1 -6 -4 -12 -6 -7 -17 -33 -26 -58 -8 -25 -38 -110
-67 -190 -28 -80 -53 -152 -55 -160 -2 -8 -4 -16 -4 -17 -1 -2 -1 -6 -2 -10
-1 -5 -6 -17 -12 -28 -6 -11 -12 -24 -13 -30 -3 -11 -75 -211 -92 -256 -6 -15
-8 -30 -5 -33 4 -3 2 -6 -4 -6 -5 0 -10 -6 -10 -12 -1 -7 -24 -76 -52 -153
-29 -77 -54 -147 -56 -155 -4 -18 -50 -150 -70 -200 -18 -47 -27 -73 -31 -85
-2 -5 -14 -41 -28 -80 -20 -56 -25 -64 -26 -40 0 17 -2 1798 -3 3958 l-2 3928
105 -5 c58 -3 132 -8 165 -11z m2715 -1401 c64 -73 109 -128 176 -214 36 -47
72 -93 80 -103 8 -9 14 -21 14 -26 0 -4 11 -20 25 -35 14 -15 25 -29 25 -31 0
-2 26 -43 58 -92 32 -48 73 -114 91 -147 18 -32 47 -82 63 -110 17 -28 62
-116 100 -196 87 -183 84 -175 108 -240 11 -30 25 -64 29 -75 10 -21 45 -116
47 -125 0 -3 3 -12 7 -20 9 -24 59 -179 61 -193 2 -7 8 -32 15 -57 7 -25 14
-52 16 -60 2 -8 10 -43 19 -77 9 -35 21 -86 27 -115 6 -29 12 -62 15 -74 2
-11 6 -36 8 -55 3 -19 5 -34 6 -34 3 0 16 -84 26 -175 2 -19 6 -53 9 -75 8
-70 17 -207 21 -320 2 -60 4 -114 5 -120 1 -28 -11 -289 -15 -345 -11 -130
-17 -185 -23 -203 -2 -10 -6 -37 -8 -60 -2 -36 -11 -91 -29 -183 -2 -12 -7
-37 -10 -55 -3 -19 -20 -88 -36 -154 -17 -66 -33 -131 -36 -145 -8 -38 -109
-339 -134 -400 -12 -30 -26 -64 -30 -75 -5 -11 -25 -55 -45 -99 -20 -43 -37
-84 -38 -90 -1 -6 -4 -13 -8 -16 -3 -3 -24 -43 -47 -90 -23 -47 -58 -112 -78
-145 -19 -33 -37 -68 -41 -77 -3 -10 -9 -18 -14 -18 -5 0 -9 -4 -9 -9 0 -10
-85 -147 -135 -219 -73 -104 -126 -177 -150 -205 -6 -6 -30 -37 -54 -67 -106
-135 -372 -411 -501 -520 -29 -25 -58 -50 -64 -55 -6 -6 -47 -38 -91 -73 -44
-34 -91 -71 -105 -82 -39 -32 -330 -224 -385 -255 -141 -79 -245 -132 -245
-127 0 4 -4 2 -8 -3 -8 -11 -19 -17 -147 -75 -49 -23 -98 -42 -107 -43 -10 -1
-18 -5 -18 -9 0 -4 -4 -8 -9 -8 -5 0 -22 -5 -38 -12 -15 -6 -30 -12 -33 -13
-3 -1 -17 -6 -31 -12 -41 -18 -272 -95 -296 -99 -12 -2 -33 -8 -45 -13 -13 -5
-27 -9 -33 -10 -5 -1 -26 -6 -45 -11 -119 -32 -304 -70 -415 -86 -11 -1 -40
-5 -65 -9 -68 -10 -134 -13 -143 -8 -4 2 -1 16 7 31 13 24 50 120 51 132 0 6
104 298 115 325 22 54 54 151 52 157 -1 5 2 8 6 8 4 0 8 8 9 17 1 10 7 32 14
48 7 17 13 35 15 40 3 13 82 236 91 255 10 23 10 23 18 58 4 17 11 32 16 32 5
0 8 3 7 8 -2 10 33 125 42 137 5 6 8 12 9 15 0 6 1 11 36 110 14 41 28 82 32
90 3 8 8 24 10 34 2 11 8 25 14 33 6 7 8 13 4 13 -4 0 -3 6 3 13 6 7 13 24 15
38 3 13 13 42 22 64 9 22 18 45 19 50 2 6 5 17 9 25 12 33 62 175 63 180 0 3
5 16 11 30 5 14 25 70 44 125 19 55 39 103 44 107 6 4 7 8 2 8 -4 0 0 17 9 38
8 20 17 44 19 52 3 12 60 176 91 260 3 8 5 17 5 20 1 3 5 11 11 18 6 7 8 15 5
19 -3 3 0 18 8 33 14 26 27 63 125 345 23 66 47 134 55 150 7 17 16 41 20 55
3 14 10 34 15 45 10 25 64 177 66 188 1 4 2 9 3 12 0 3 1 7 1 10 1 2 12 29 25
60 14 30 25 58 25 63 -1 6 20 66 48 142 3 8 6 20 8 25 1 6 26 73 54 150 29 77
58 158 65 180 21 63 96 275 107 304 6 14 12 31 13 36 6 23 59 171 65 180 4 6
11 26 15 45 4 19 12 41 19 49 6 8 10 15 8 15 -2 1 -1 8 2 16 3 8 30 85 60 170
30 85 62 175 71 200 8 25 23 65 31 90 9 25 36 101 61 170 25 69 46 131 46 138
0 6 5 12 10 12 6 0 8 2 5 5 -3 3 19 72 49 153 30 81 56 154 57 162 2 8 6 23
10 33 9 25 17 52 17 54 0 2 9 24 20 50 12 27 22 55 24 63 2 8 18 53 35 100 18
47 39 108 47 135 8 28 18 55 21 60 4 6 7 15 8 20 1 6 16 48 34 95 18 47 39
108 47 135 8 28 18 55 21 60 6 9 48 124 55 150 12 42 31 92 40 103 5 6 7 12 3
12 -3 0 1 17 10 38 8 20 29 75 45 122 16 47 32 91 34 99 5 14 85 -62 185 -175z
m-6165 94 c4 -18 11 -37 15 -43 4 -5 10 -19 12 -30 3 -11 27 -78 53 -150 26
-71 48 -137 50 -145 2 -8 4 -16 5 -17 2 -2 3 -6 5 -10 1 -5 7 -21 13 -36 7
-16 12 -34 12 -41 0 -6 4 -16 8 -22 4 -5 16 -34 27 -64 10 -30 23 -66 28 -80
6 -14 11 -29 13 -35 1 -5 26 -75 54 -155 28 -80 62 -174 74 -210 68 -194 105
-298 116 -325 6 -16 13 -37 15 -45 3 -13 13 -42 41 -115 4 -11 8 -22 9 -25 1
-3 4 -12 8 -20 6 -18 43 -122 97 -275 21 -60 54 -153 73 -207 20 -53 33 -99
30 -102 -4 -3 -1 -6 6 -6 7 0 9 -4 6 -10 -3 -5 -2 -10 3 -10 5 0 9 -6 9 -13 0
-8 17 -60 37 -117 21 -56 39 -107 40 -114 1 -6 5 -17 9 -23 5 -7 10 -23 12
-35 3 -13 9 -32 14 -43 10 -22 22 -54 27 -70 1 -5 23 -68 49 -140 26 -71 48
-134 49 -140 2 -5 6 -17 9 -25 4 -8 20 -53 36 -100 16 -47 42 -116 56 -155 14
-38 28 -77 30 -85 2 -8 20 -60 40 -115 20 -55 38 -104 39 -110 3 -11 14 -41
26 -70 4 -11 22 -63 40 -115 18 -52 36 -104 40 -115 4 -11 22 -60 40 -110 17
-49 34 -97 37 -105 4 -8 7 -18 8 -22 2 -5 4 -10 5 -13 1 -3 3 -8 4 -12 2 -11
56 -163 66 -188 10 -24 49 -134 55 -155 3 -8 27 -78 55 -155 28 -77 53 -147
55 -155 2 -8 4 -16 5 -17 2 -2 3 -6 5 -10 1 -5 5 -16 9 -25 4 -9 9 -22 10 -30
2 -7 6 -20 9 -28 20 -47 84 -230 102 -290 1 -3 6 -16 12 -30 6 -14 20 -54 32
-90 12 -36 26 -74 31 -85 5 -11 27 -74 50 -140 22 -66 42 -124 44 -130 2 -5 4
-14 6 -20 1 -5 6 -16 12 -22 6 -7 8 -13 4 -13 -3 0 5 -25 19 -55 13 -30 22
-55 20 -55 -2 0 4 -20 15 -45 11 -25 19 -48 19 -50 0 -3 9 -31 21 -63 12 -31
23 -61 25 -67 1 -5 5 -17 8 -25 7 -17 29 -80 57 -160 38 -112 79 -226 99 -276
11 -29 17 -55 14 -58 -4 -3 0 -6 7 -6 7 0 11 -3 7 -6 -3 -3 3 -29 15 -58 11
-28 25 -67 30 -86 6 -19 16 -48 23 -65 8 -16 20 -50 29 -75 8 -25 29 -85 47
-135 17 -49 35 -103 40 -118 l8 -29 -53 6 c-30 4 -62 8 -72 10 -11 2 -53 9
-94 16 -41 6 -100 18 -131 26 -30 7 -66 16 -80 18 -13 2 -25 5 -26 7 -4 2 -12
4 -63 13 -25 5 -49 11 -55 14 -5 4 -14 7 -20 8 -23 4 -166 48 -245 76 -47 16
-89 31 -95 32 -5 2 -21 8 -35 13 -14 6 -45 19 -70 28 -25 9 -61 24 -80 33 -19
9 -37 17 -40 17 -3 1 -36 16 -74 33 -38 18 -72 32 -75 32 -3 0 -17 9 -31 20
-14 11 -30 20 -37 20 -14 0 -283 149 -301 167 -7 7 -17 13 -22 13 -5 0 -15 6
-22 12 -18 17 -48 36 -73 47 -12 5 -27 16 -34 25 -7 9 -20 16 -27 16 -8 0 -14
4 -14 8 0 4 -13 15 -29 25 -26 15 -251 188 -277 212 -6 5 -42 37 -80 70 -88
76 -313 302 -379 379 -27 33 -55 64 -60 70 -6 6 -28 33 -50 61 -22 27 -48 59
-57 69 -10 11 -20 28 -24 38 -3 10 -9 18 -14 18 -5 0 -18 15 -29 33 -11 18
-29 44 -41 56 -11 13 -20 30 -20 38 0 7 -4 13 -9 13 -5 0 -20 17 -32 38 -12
20 -41 66 -63 102 -92 148 -143 238 -205 365 -29 61 -62 126 -72 146 -11 20
-19 44 -19 53 0 9 -4 16 -10 16 -5 0 -10 7 -10 15 0 8 -4 23 -10 33 -5 9 -23
55 -41 102 -17 47 -34 94 -39 105 -43 103 -144 478 -165 611 -1 11 -8 45 -14
75 -6 30 -13 74 -16 99 -2 25 -7 63 -10 85 -2 22 -7 60 -10 85 -11 81 -26 333
-24 390 4 131 3 193 -4 197 -4 2 -4 10 0 16 4 6 8 25 9 42 1 16 5 77 8 135 3
58 9 119 12 135 4 17 7 48 9 70 2 22 4 40 5 40 1 0 3 11 5 25 1 14 5 43 9 65
4 22 9 54 12 70 12 77 37 190 65 295 17 63 31 123 32 133 1 9 4 17 7 17 3 0 7
12 8 26 1 15 7 33 13 40 6 8 9 14 6 14 -3 0 5 27 18 60 13 33 22 60 20 60 -3
0 4 20 15 45 11 25 17 45 13 45 -3 0 -1 6 5 13 6 7 20 39 33 72 12 33 33 85
47 115 14 30 26 57 27 60 3 16 123 252 165 325 27 47 50 89 50 91 0 2 16 27
35 54 19 27 35 52 35 55 0 4 21 36 47 73 26 37 64 92 85 122 88 129 359 449
380 450 3 0 10 -15 13 -32z"/>
</g>
</svg>
